<svg
  xmlns="http://www.w3.org/2000/svg"
  width="{{ include.width }}"
  height="{{ include.height }}"
  viewBox="0 0 126 136">
<path
  fill="#F22939"
  fill-rule="evenodd"
  d="m 73.124762,0.00209065 c -12.52949,0.10323 -21.61793,10.06719035 -29.77791,22.11150035 -8.15997,12.04432 -15.46139,27.43282 -21.75412,42.74738 C 9.0072601,95.490141 0,135.85304 0,135.85304 l 15.920751,-0.023 c 0,0 6.315591,-33.2728 17.650001,-62.184359 l 32.41792,0 0,54.956059 0,6.5136 6.4905,0.634 c 0,0 12.36626,1.3477 25.30488,-2.2135 6.469298,-1.7805 13.343608,-4.8403 18.791318,-10.4562 5.44771,-5.616 9.03626,-13.8895 8.93452,-23.967599 l 0,-0.2767 -0.023,-0.2767 c -1.6679,-18.94434 -14.84058,-29.47689 -26.826628,-34.17028 2.902708,-1.89457 5.724578,-4.11712 8.196698,-6.90552 3.98097,-4.4903 7.00547,-10.62293 6.99775,-17.69613 -0.0126,-11.5248 -3.1654,-21.84296 -10.34099,-29.10925 C 96.338132,3.4112607 85.742332,-0.10171935 73.124812,0.00224065 z m 7.25137,14.83707035 c 5.93624,0.89434 10.02702,3.02753 12.9003,5.93714 3.90577,3.95514 6.19248,10.03842 6.20229,19.03342 0.003,3.1867 -1.12677,5.58848 -3.37782,8.12753 -2.25105,2.53905 -5.68025,4.91266 -9.31497,6.76718 -2.21123,1.12824 -4.37126,1.99569 -6.4098,2.74377 l 0,-42.60904 z m -14.38746,3.17032 0,41.26021 -26.35397,0 c 4.89484,-10.87947 10.23017,-21.14622 15.60948,-29.0862 3.75007,-5.53519 7.49799,-9.55775 10.74449,-12.17401 z m 14.38746,56.65065 c 3.40445,0.39266 7.65279,1.11385 11.98956,2.65153 9.295648,3.29594 17.458718,8.65788 18.756738,22.23838 0.009,6.676799 -1.92517,10.492299 -4.865,13.522899 -2.98403,3.0762 -7.419218,5.257 -12.277758,6.5942 -4.82371,1.3276 -9.80647,1.7654 -13.60354,1.8791 l 0,-46.886109 z"/>
</svg>
